<?xml version="1.0" encoding="utf-8"?>
<!-- Generator: Adobe Illustrator 24.0.1, SVG Export Plug-In . SVG Version: 6.00 Build 0)  -->
<svg version="1.1" id="Layer_1" xmlns="http://www.w3.org/2000/svg" xmlns:xlink="http://www.w3.org/1999/xlink" x="0px" y="0px"
	 viewBox="0 0 290 290" style="enable-background:new 0 0 290 290;" xml:space="preserve">
<style type="text/css">
	.st0{fill:#FDD400;}
</style>
<path id="path3506" class="st0" d="M268.75,0.04c-0.13,0.13-0.96,4.23-1.83,9.11c-10.46,58.59-44.64,112.3-90.99,142.99
	c-13.9,9.21-27.25,15.85-43.53,21.68c-9.47,3.39-28.05,8.36-28.73,7.67c-0.63-0.63,1.14-11.28,2.87-17.29
	c3.1-10.8,7.88-19.38,14.29-25.63c7.96-7.77,18.49-10.58,26.75-7.13c2.98,1.24,3.47,0.52,3.19-4.69c-0.28-5.14-2.44-8.15-7.57-10.55
	c-3.45-1.62-4.18-1.71-13.88-1.71h-10.23l-1.14-2.27c-1.47-2.94-5.81-5.2-10.01-5.2c-4.38,0-15.79,2.31-22.81,4.62
	c-7.84,2.58-21.48,9.26-28.34,13.87c-18.53,12.46-32.11,28.3-39.87,46.48c-4.28,10.04-7,23.28-6.96,33.94
	c0.07,18.91,7.92,43.21,17.82,55.22c11.29,13.69,33.01,23.98,57.86,27.42c3.93,0.54,8.02,1.11,9.1,1.27
	c1.07,0.15,9.84,0.19,19.49,0.09c14.02-0.15,19.3-0.47,26.31-1.58c20.06-3.17,39.07-9.2,53.89-17.11
	c10.57-5.64,17.7-10.92,25.7-18.98c8.89-8.98,13.55-15.85,17.05-25.2c2.07-5.51,4.32-14.78,3.58-14.78c-0.18,0-2.27,1.69-4.64,3.76
	c-13.04,11.38-27.35,20.88-43.3,28.76c-23.37,11.55-44.25,16.84-66.43,16.85c-8.8,0-10.56-0.15-10.56-0.94
	c0-0.58,0.93-1.1,2.44-1.36c21.08-3.64,39.29-8.55,55.71-15.03c38.8-15.31,67.78-38.2,85.8-67.77
	c11.12-18.25,16.84-39.51,14.59-54.24c-0.8-5.25-2.35-10.07-3.22-10.07c-0.26,0-1.26,2.36-2.21,5.25
	c-9.23,28-38.97,60.15-75.38,81.47c-13.67,8-29.95,14.89-42.19,17.85c-6.68,1.61-17.49,2.96-19,2.38c-2.01-0.77-0.14-1.74,9.58-4.96
	c22.59-7.49,41.99-17.74,61.28-32.39c8.06-6.13,26.47-24.32,32.94-32.57c23.71-30.2,38.34-64.9,42.48-100.71
	c2.3-19.9-0.74-38.64-7.51-46.35C269.95,0.89,268.88-0.09,268.75,0.04z M101.65,118.48c1.29,0.02,2.12,0.2,2.25,0.58
	c0.45,1.32-0.93,2.36-4.26,3.23c-6.42,1.69-10.79,6.19-8.88,9.11c0.47,0.71,1.62,1.39,2.55,1.5c2.21,0.27,8.8-2.92,13.9-6.72
	c4.46-3.32,6.26-3.44,7.38-0.49c0.83,2.17-0.21,5.34-2.42,7.39c-4.44,4.13-10.87,15.24-13.82,23.9c-3.02,8.86-5.31,22.35-4.56,26.87
	c0.37,2.24,0.28,2.44-1.14,2.44c-3.9,0-9.27-4.34-11.72-9.45c-1.19-2.49-1.28-2.53-3.87-1.56c-3.61,1.36-7.07,5.95-8.9,11.82
	c-0.79,2.53-7.16,0.4-10.41-3.47c-0.96-1.14-2.31-3.19-3.02-4.58c-1.48-2.89-1.74-2.96-5.1-1.24c-2.75,1.41-6.15,6-7.32,9.91
	c-0.66,2.19-0.97,2.47-2.82,2.47c-5.17,0-12.69-8.42-11.75-13.15c0.69-3.44,5.56-13.01,10.01-19.65
	c11.43-17.05,30.55-30.8,51.12-36.74C93.72,119.27,98.8,118.45,101.65,118.48z"/>
</svg>
