<?xml version="1.0" encoding="UTF-8"?>
<svg width="426px" height="101px" viewBox="0 0 426 101" version="1.1" xmlns="http://www.w3.org/2000/svg" xmlns:xlink="http://www.w3.org/1999/xlink">
    <defs>
        <polygon id="path-1" points="218.43666 297.260897 218.43666 -122 202.43666 -122 202.43666 297.260897"></polygon>
        <filter x="-18.8%" y="-1.4%" width="175.0%" height="102.9%" filterUnits="objectBoundingBox" id="filter-2">
            <feOffset dx="3" dy="0" in="SourceAlpha" result="shadowOffsetOuter1"></feOffset>
            <feGaussianBlur stdDeviation="1.5" in="shadowOffsetOuter1" result="shadowBlurOuter1"></feGaussianBlur>
            <feColorMatrix values="0 0 0 0 0   0 0 0 0 0   0 0 0 0 0  0 0 0 0.25 0" type="matrix" in="shadowBlurOuter1"></feColorMatrix>
        </filter>
        <path d="M150.086637,3.63044837 L167.284358,3.63044837 L181.126708,37.6086345 L194.889088,3.63044837 L212.086637,3.63044837 L181.128699,66.6304484 L150.086637,3.63044837 Z M61.0866367,62.2875621 L61.0866367,0.630448373 L100.889966,35.8192976 L100.890729,3.97333465 L115.086637,3.97333465 L115.086637,65.6304484 L75.2817814,30.4400766 L75.2825445,62.2875621 L61.0866367,62.2875621 Z M15.0386787,3.63044837 L15.0386583,41.8521396 L15.0420704,42.1825871 C15.0982185,44.8651465 15.8505118,47.0373859 17.295041,48.7144697 C18.7809085,50.4395468 21.0201142,51.3061118 24.0446977,51.3061118 C27.0702081,51.3061118 29.3244483,50.4388905 30.8385014,48.7119288 C32.3089037,47.0347562 33.0744767,44.8626698 33.1311917,42.180379 L33.1345948,41.8560542 L33.1345948,3.63044837 L48.0866367,3.63044837 L48.0866367,42.8502197 L48.0833261,43.3193777 C48.0168984,48.0264608 46.950386,51.9487103 44.8781495,55.0787397 C42.7396674,58.3088304 39.8427129,60.7127186 36.1949089,62.2848255 C32.5653838,63.8490547 28.5142613,64.6304484 24.0446977,64.6304484 C19.5748467,64.6304484 15.5373514,63.8489507 11.9353988,62.2843813 C8.31587021,60.7121775 5.43332337,58.3084035 3.29512396,55.0787397 C1.22308558,51.9490096 0.156617302,48.0273517 0.0899690242,43.3208426 L0.0866367168,42.8475757 L0.0866367168,3.63044837 L15.0386787,3.63044837 Z M347.883452,2.63044837 C351.876814,2.63044837 355.316817,3.2766087 358.201313,4.57271654 C361.075379,5.8641381 363.475017,7.49556752 365.397598,9.46747806 C367.191876,11.3077938 368.593115,13.1765087 369.599997,15.0742653 L369.796115,15.4542041 L369.960869,15.7825093 L358.575298,22.114075 L358.155547,21.4391187 C356.952493,19.5497201 355.536513,18.0357816 353.90722,16.8943622 C352.196487,15.6958887 350.247744,15.0974389 348.049999,15.0974389 C346.134594,15.0974389 344.708082,15.5016648 343.759185,16.2937877 C342.818388,17.0791494 342.356559,18.0367482 342.356559,19.1936918 C342.356559,21.0333812 343.396711,22.5303449 345.530838,23.7116479 C347.579705,24.8457566 350.394789,26.0652353 353.971258,27.3670875 L354.921518,27.7085677 C357.675358,28.6604977 360.191866,29.9351749 362.47,31.5324607 C364.762832,33.140052 366.604743,35.1164156 367.992899,37.4592081 C369.389934,39.8169858 370.086637,42.6361344 370.086637,45.9099884 C370.086637,49.9172564 369.034665,53.3307789 366.928786,56.1378315 C364.83365,58.930563 362.100657,61.0469054 358.735964,62.4836588 C355.384551,63.9147415 351.84926,64.6304484 348.133273,64.6304484 C344.307956,64.6304484 340.745955,63.9430903 337.450248,62.5678696 C334.159744,61.19482 331.288625,59.3438114 328.839157,57.0154835 C326.511443,54.8028886 324.702765,52.3469017 323.415129,49.6487878 L323.216148,49.2207579 L323.086637,48.9346269 L333.516102,41.4492703 L333.97137,42.2432258 C335.670652,45.1549558 337.652488,47.4778523 339.916241,49.2148451 C342.264384,51.0165913 344.860502,51.9145483 347.716905,51.9145483 C349.744839,51.9145483 351.367982,51.4280661 352.599756,50.4619081 C353.809627,49.5129291 354.409628,48.2282665 354.409628,46.5737473 C354.409628,45.2210263 354.049329,44.1184293 353.331726,43.2502308 C352.593868,42.3575274 351.401527,41.5032407 349.753513,40.6956973 C348.073465,39.8724566 345.822452,38.9368081 342.998467,37.8885485 C341.542685,37.3306738 339.921586,36.6066244 338.134587,35.7163827 C336.329978,34.8173684 334.597193,33.6663905 332.936428,32.2640943 C331.259946,30.8485272 329.882471,29.1082015 328.804945,27.045766 C327.71978,24.9687072 327.179191,22.4882322 327.179191,19.6085412 C327.179191,16.0450868 328.105456,12.9924591 329.959772,10.462731 C331.805617,7.94455866 334.303399,6.00735213 337.446155,4.65327787 C340.577127,3.30428086 344.057246,2.63044837 347.883452,2.63044837 Z M143.086637,3.63044837 L143.086637,62.6304484 L128.086637,62.6304484 L128.086637,3.63044837 L143.086637,3.63044837 Z M259.086637,3.63044837 L259.086637,15.963451 L234.251358,15.963451 L234.251358,25.5913883 L257.441967,25.5913883 L257.441967,37.7580202 L234.251358,37.7580202 L234.251358,50.2974458 L259.086637,50.2974458 L259.086637,62.6304484 L220.086637,62.6304484 L220.086637,3.63044837 L259.086637,3.63044837 Z M420.086637,3.63044837 L420.086637,15.963451 L395.31246,15.963451 L395.31246,25.5913883 L418.603107,25.5913883 L418.603107,37.7580202 L395.31246,37.7580202 L395.31246,50.2974458 L420.086637,50.2974458 L420.086637,62.6304484 L381.086637,62.6304484 L381.086637,3.63044837 L420.086637,3.63044837 Z M293.448282,3.63044837 L293.907244,3.63277853 C301.118695,3.70606755 306.637177,5.5093865 310.44634,9.05613208 C314.338035,12.6797233 316.28698,17.358195 316.28698,23.0650176 C316.28698,27.1306404 315.293145,30.7114535 313.304659,33.7981646 C311.511067,36.5823439 308.957353,38.7101597 305.652151,40.179415 L305.281814,40.3399553 L304.974087,40.4661664 L320.086637,62.6304484 L302.777674,62.6304484 L290.437427,42.4995868 L286.751272,42.4995868 L286.752034,62.6304484 L272.086637,62.6304484 L272.086637,3.63044837 L293.448282,3.63044837 Z M291.63027,15.6304484 L285.086637,15.6304484 L285.086637,31.6304484 L291.63027,31.6304484 L291.963702,31.627362 C294.71983,31.5759166 296.913905,30.8812142 298.53359,29.5337769 C300.234587,28.1186955 301.086637,26.1398733 301.086637,23.6304484 C301.086637,21.0647996 300.234361,19.0706819 298.530514,17.6827594 C296.846385,16.3108985 294.542007,15.6304484 291.63027,15.6304484 L291.63027,15.6304484 Z" id="path-3"></path>
        <filter x="-1.4%" y="-4.5%" width="102.8%" height="118.2%" filterUnits="objectBoundingBox" id="filter-4">
            <feOffset dx="0" dy="3" in="SourceAlpha" result="shadowOffsetOuter1"></feOffset>
            <feGaussianBlur stdDeviation="1.5" in="shadowOffsetOuter1" result="shadowBlurOuter1"></feGaussianBlur>
            <feColorMatrix values="0 0 0 0 0   0 0 0 0 0   0 0 0 0 0  0 0 0 0.25 0" type="matrix" in="shadowBlurOuter1"></feColorMatrix>
        </filter>
    </defs>
    <g id="Path" transform="translate(210.436660, 87.630448) rotate(-270.000000) translate(-210.436660, -87.630448) ">
        <use fill="black" fill-opacity="1" filter="url(#filter-2)" xlink:href="#path-1"></use>
        <use fill="#2C2C31" fill-rule="evenodd" xlink:href="#path-1"></use>
    </g>
    <g id="UNIVERSE" fill-rule="nonzero">
        <use fill="black" fill-opacity="1" filter="url(#filter-4)" xlink:href="#path-3"></use>
        <use fill="#2C2C31" xlink:href="#path-3"></use>
    </g>
</svg>